<svg aria-hidden="true" style="width:0;height:0;position:absolute;overflow:hidden" xmlns="http://www.w3.org/2000/svg"><defs><symbol id="icon-menu-button" viewBox="0 0 59 32"><path d="M58.667 31.971H0v-5.205h58.667v5.205zm0-13.013H0v-5.205h58.667v5.205zm0-13.012H0V.741h58.667v5.205z"/></symbol><symbol id="icon-02" viewBox="0 0 38 32"><path fill="#df3d3a" style="fill:var(--color1,#df3d3a)" opacity=".2" d="M16.344 18.196c0 4.269-.623 7.464-1.869 9.585-1.246 2.108-3.202 3.162-5.866 3.162-2.585 0-4.514-1.014-5.787-3.043S.886 22.822.833 18.752V13.78c0-4.229.623-7.384 1.869-9.466 1.259-2.081 3.215-3.122 5.866-3.122 2.612 0 4.541.988 5.787 2.963 1.259 1.975 1.922 4.965 1.989 8.969v5.071zm-3.52-5.031c0-3.063-.338-5.316-1.014-6.761-.676-1.458-1.757-2.188-3.241-2.188-1.445 0-2.506.716-3.182 2.148-.676 1.419-1.027 3.566-1.054 6.443v5.966c0 3.049.351 5.343 1.054 6.881.703 1.525 1.777 2.287 3.222 2.287 1.432 0 2.486-.723 3.162-2.168s1.027-3.652 1.054-6.622v-5.986zm24.361 17.38H20.997V27.9l8.253-10.937c1.246-1.684 2.108-3.063 2.585-4.136a8.263 8.263 0 0 0 .736-3.44c0-1.538-.358-2.784-1.074-3.739s-1.657-1.432-2.824-1.432c-1.472 0-2.612.51-3.421 1.531-.795 1.008-1.193 2.466-1.193 4.375h-3.52c0-2.665.729-4.819 2.188-6.463s3.44-2.466 5.946-2.466c2.307 0 4.123.709 5.449 2.128 1.326 1.405 1.989 3.281 1.989 5.628 0 2.864-1.492 6.251-4.474 10.162l-6.443 8.432h11.992v3.003z"/></symbol><symbol id="icon-03" viewBox="0 0 36 32"><path fill="#df3d3a" style="fill:var(--color1,#df3d3a)" opacity=".2" d="M16.344 18.196c0 4.269-.623 7.464-1.869 9.585-1.246 2.108-3.202 3.162-5.866 3.162-2.585 0-4.514-1.014-5.787-3.043S.886 22.822.833 18.752V13.78c0-4.229.623-7.384 1.869-9.466 1.259-2.081 3.215-3.122 5.866-3.122 2.612 0 4.541.988 5.787 2.963 1.259 1.975 1.922 4.965 1.989 8.969v5.071zm-3.52-5.031c0-3.063-.338-5.316-1.014-6.761-.676-1.458-1.757-2.188-3.241-2.188-1.445 0-2.506.716-3.182 2.148-.676 1.419-1.027 3.566-1.054 6.443v5.966c0 3.049.351 5.343 1.054 6.881.703 1.525 1.777 2.287 3.222 2.287 1.432 0 2.486-.723 3.162-2.168s1.027-3.652 1.054-6.622v-5.986zm12.667 1.113h2.247c1.445 0 2.559-.444 3.341-1.332s1.173-2.101 1.173-3.639c0-3.394-1.312-5.091-3.937-5.091-1.259 0-2.247.457-2.963 1.372s-1.074 2.115-1.074 3.599h-3.5c0-2.32.703-4.229 2.108-5.727 1.418-1.511 3.228-2.267 5.429-2.267 2.28 0 4.09.716 5.429 2.148 1.339 1.419 2.009 3.434 2.009 6.045a7.159 7.159 0 0 1-1.054 3.759c-.689 1.153-1.591 2.002-2.705 2.545 2.731 1.008 4.097 3.268 4.097 6.781 0 2.585-.722 4.647-2.168 6.185-1.432 1.524-3.308 2.287-5.628 2.287-2.294 0-4.15-.722-5.568-2.168-1.405-1.458-2.108-3.414-2.108-5.866h3.52c0 1.538.371 2.764 1.114 3.679.742.902 1.757 1.352 3.043 1.352 1.313 0 2.353-.444 3.122-1.332.782-.888 1.173-2.241 1.173-4.057 0-3.513-1.664-5.27-4.991-5.27h-2.108v-3.003z"/></symbol><symbol id="icon-04" viewBox="0 0 38 32"><path fill="#df3d3a" style="fill:var(--color1,#df3d3a)" opacity=".2" d="M16.344 18.196c0 4.269-.623 7.464-1.869 9.585-1.246 2.108-3.202 3.162-5.866 3.162-2.585 0-4.514-1.014-5.787-3.043S.886 22.822.833 18.752V13.78c0-4.229.623-7.384 1.869-9.466 1.259-2.081 3.215-3.122 5.866-3.122 2.612 0 4.541.988 5.787 2.963 1.259 1.975 1.922 4.965 1.989 8.969v5.071zm-3.52-5.031c0-3.063-.338-5.316-1.014-6.761-.676-1.458-1.757-2.188-3.241-2.188-1.445 0-2.506.716-3.182 2.148-.676 1.419-1.027 3.566-1.054 6.443v5.966c0 3.049.351 5.343 1.054 6.881.703 1.525 1.777 2.287 3.222 2.287 1.432 0 2.486-.723 3.162-2.168s1.027-3.652 1.054-6.622v-5.986zm21.497 7.656h3.222v3.003h-3.222v6.722h-3.52v-6.722H19.863v-2.168L30.622 1.591h3.699v19.23zm-10.56 0h7.04V7.06l-7.04 13.761z"/></symbol><symbol id="icon-up-arrow" viewBox="0 0 31 32"><path fill="none" stroke="#df3d3a" style="stroke:var(--color1,#df3d3a)" stroke-width="2.783" d="M1.391 29.783 29.217 1.957m0 0H1.391m27.826 0v27.826"/></symbol><symbol id="icon-dash" viewBox="0 0 75 32"><path d="M67.083 27.479H6.854V5.458h60.229v22.021z"/></symbol><symbol id="icon-dashes" viewBox="0 0 75 32"><path d="M67.083 27.479H6.854V5.458h60.229v22.021z"/></symbol><symbol id="icon-01" viewBox="0 0 32 32"><path d="M16.344 18.196c0 4.269-.623 7.464-1.869 9.585-1.246 2.108-3.202 3.162-5.866 3.162-2.585 0-4.514-1.014-5.787-3.043S.886 22.822.833 18.752V13.78c0-4.229.623-7.384 1.869-9.466 1.259-2.081 3.215-3.122 5.866-3.122 2.612 0 4.541.988 5.787 2.963 1.259 1.975 1.922 4.965 1.989 8.969v5.071zm-3.52-5.031c0-3.063-.338-5.316-1.014-6.761-.676-1.458-1.757-2.188-3.241-2.188-1.445 0-2.506.716-3.182 2.148-.676 1.419-1.027 3.566-1.054 6.443v5.966c0 3.049.351 5.343 1.054 6.881.703 1.525 1.777 2.287 3.222 2.287 1.432 0 2.486-.723 3.162-2.168s1.027-3.652 1.054-6.622v-5.986zm18.653 17.38h-3.54V6.025l-6.085 2.724V5.408l9.068-3.957h.557v29.094z"/></symbol><symbol id="icon-quota" viewBox="0 0 44 32"><path d="M0 15.411V0h17.875v11.603C17.875 23.69 11.917 30.489 0 32v-6.346c3.01-.786 5.068-1.934 6.173-3.445 1.167-1.511 1.874-3.777 2.119-6.799H-.001zM25.645 15.411V0H43.52v11.603c0 12.087-5.958 18.886-17.875 20.397v-6.346c3.01-.786 5.068-1.934 6.173-3.445 1.167-1.511 1.874-3.777 2.119-6.799h-8.293z"/></symbol><symbol id="icon-dot" viewBox="0 0 32 32"><path d="M32 16c0 8.837-7.163 16-16 16S0 24.837 0 16 7.163 0 16 0s16 7.163 16 16z"/></symbol><symbol id="icon-question" viewBox="0 0 32 32"><path fill="#fff" style="fill:var(--color1,#fff)" opacity=".1" d="M32 16c0 8.837-7.163 16-16 16S0 24.837 0 16 7.163 0 16 0s16 7.163 16 16z"/><path fill="#e7e7e7" style="fill:var(--color2,#e7e7e7)" d="M15.066 18.996c0-.781.081-1.416.244-1.904s.56-1.11 1.191-1.865l.683-.879c.456-.638.684-1.302.684-1.992 0-.684-.143-1.217-.43-1.602-.28-.391-.684-.586-1.211-.586-.495 0-.908.176-1.24.527-.325.352-.488.824-.488 1.416H12.78c.013-1.074.339-1.93.977-2.568s1.462-.957 2.471-.957c1.048 0 1.872.329 2.471.986s.898 1.566.898 2.725c0 1.107-.453 2.217-1.358 3.33l-.898 1.084c-.371.527-.557 1.289-.557 2.285h-1.719zm.938 2.061c.326 0 .57.101.732.303.169.195.254.439.254.732s-.085.537-.254.732c-.163.189-.407.283-.732.283-.332 0-.579-.094-.742-.283-.156-.195-.234-.439-.234-.732s.078-.537.234-.732c.163-.202.41-.303.742-.303z"/></symbol><symbol id="icon-logo" viewBox="0 0 260 32"><path fill="#e7e7e7" style="fill:var(--color7,#e7e7e7)" d="M210.618 5.047h44.948l4.436-5.034h-64.367l-17.86 30.445h41.713l2.996-5.034h-23.852l4.554-7.671h23.852l2.878-5.034h-23.734l4.436-7.671zm-34.401 7.671h-17.74l2.877-4.914c1.199-2.038 2.277-2.757 4.075-2.757s2.397 1.438 1.439 3.237h18.099l1.798-3.237c1.318-2.397 1.318-5.034-1.918-5.034h-31.884c-2.877 0-5.154.36-6.832 3.117l-5.634 9.589c-1.558 2.757-1.438 5.034 2.397 5.034h18.339l-2.997 5.274c-.839 1.438-1.918 2.397-4.435 2.397-2.158 0-2.038-1.439-1.079-2.877h-17.98l-2.158 3.596c-1.318 2.277-.24 4.315 2.877 4.315h31.644c2.877 0 5.393-1.318 6.832-3.716l5.394-8.989c1.199-2.277.6-5.034-3.116-5.034z"/><path fill="#e7e7e7" style="fill:var(--color7,#e7e7e7)" d="M253.222 5.934c-1.462 0-2.648 1.15-2.648 2.555 0 1.434 1.186 2.584 2.648 2.584 1.456 0 2.636-1.15 2.636-2.584 0-1.405-1.18-2.555-2.636-2.555zm0 4.636c-1.194 0-2.146-.91-2.146-2.082 0-1.135.952-2.053 2.146-2.053 1.18 0 2.134.917 2.134 2.053 0 1.172-.954 2.082-2.134 2.082zM135.343.013h-27.089c-3.716 0-8.51 0-11.387 5.034L84.881 25.424c-1.678 2.757-.24 5.034 2.877 5.034h31.524c3.237 0 5.274-.959 7.791-5.034l11.986-20.377c1.558-2.637-.839-5.034-3.716-5.034zM120.12 7.804l-8.99 15.223c-1.199 2.158-2.277 2.397-5.034 2.397s-3.476-.959-2.637-2.397l9.109-15.223c1.318-2.277 2.877-2.757 5.154-2.757s3.596.719 2.398 2.757zM87.877.013H53.116L38.133 25.424H5.051l-5.052 5.034h71.815c4.435 0 5.873-2.158 6.832-3.835l3.596-6.233c.959-1.678.959-3.596-.959-4.674 1.921 0 4.555-1.318 6.113-4.075l3.596-6.113c1.798-2.997-.36-5.514-3.117-5.514zm-17.86 20.496-1.798 2.877c-.479.959-1.319 2.038-3.356 2.038h-8.87l4.558-7.671h8.628c1.558 0 1.558 1.439.839 2.757zm7.552-12.705-1.798 2.877c-.48.959-1.318 2.038-3.356 2.038h-8.87L68.1 5.048h8.63c1.559 0 1.559 1.438.839 2.757z"/><path fill="#e7e7e7" style="fill:var(--color7,#e7e7e7)" d="M254.576 7.82c0-.24-.11-.495-.328-.619-.226-.124-.472-.138-.72-.138h-1.29v2.875h.438V8.613h.518l.844 1.325h.502l-.896-1.325c.524-.015.932-.226.932-.793zm-1.42.436h-.48V7.39h.764c.372 0 .698.051.698.422 0 .517-.566.444-.982.444z"/></symbol></defs></svg>